<svg width="24" height="25" viewBox="0 0 24 25" fill="none" xmlns="http://www.w3.org/2000/svg">
<g id="home-05">
<path id="Icon" d="M20.3812 11.375L18.75 9.74488V5.75C18.75 5.13125 18.2438 4.625 17.625 4.625H16.5C15.8812 4.625 15.375 5.13125 15.375 5.75V6.37212L13.125 4.12438C12.8179 3.83413 12.5366 3.5 12 3.5C11.4634 3.5 11.1821 3.83413 10.875 4.12438L3.61875 11.375C3.26775 11.7406 3 12.0073 3 12.5C3 13.1334 3.486 13.625 4.125 13.625H5.25V20.375C5.25 20.9938 5.75625 21.5 6.375 21.5H8.625C9.24632 21.5 9.75 20.9963 9.75 20.375V15.875C9.75 15.2562 10.2562 14.75 10.875 14.75H13.125C13.7438 14.75 14.25 15.2562 14.25 15.875V20.375C14.25 20.9963 14.1912 21.5 14.8125 21.5H17.625C18.2438 21.5 18.75 20.9938 18.75 20.375V13.625H19.875C20.514 13.625 21 13.1334 21 12.5C21 12.0073 20.7322 11.7406 20.3812 11.375Z" stroke="#4361EE" stroke-width="2" stroke-linejoin="round"/>
</g>
</svg>
